<?xml version="1.0" encoding="iso-8859-1"?>
<!-- Generator: Adobe Illustrator 19.0.0, SVG Export Plug-In . SVG Version: 6.00 Build 0)  -->
<svg version="1.1" id="Capa_1" xmlns="http://www.w3.org/2000/svg" xmlns:xlink="http://www.w3.org/1999/xlink" x="0px" y="0px"
	 viewBox="0 0 409.6 409.6" style="enable-background:new 0 0 409.6 409.6;" xml:space="preserve">
<g>
	<g>
		<g>
			<path d="M211.627,105.813c-18.819,0-34.133,15.314-34.133,34.133s15.314,34.133,34.133,34.133s34.133-15.314,34.133-34.133
				S230.446,105.813,211.627,105.813z M211.627,160.427c-11.293,0-20.48-9.187-20.48-20.48s9.187-20.48,20.48-20.48
				s20.48,9.187,20.48,20.48S222.92,160.427,211.627,160.427z"/>
			<path d="M211.627,3.413c-75.286,0-136.533,61.247-136.533,136.533S136.34,276.48,211.627,276.48S348.16,215.233,348.16,139.947
				S286.913,3.413,211.627,3.413z M211.627,262.827c-67.753,0-122.88-55.127-122.88-122.88s55.127-122.88,122.88-122.88
				s122.88,55.127,122.88,122.88S279.38,262.827,211.627,262.827z"/>
		</g>
	</g>
</g>
<g>
	<g>
		<g>
			<path d="M211.627,105.813c-18.819,0-34.133,15.314-34.133,34.133s15.314,34.133,34.133,34.133s34.133-15.314,34.133-34.133
				S230.446,105.813,211.627,105.813z M211.627,160.427c-11.293,0-20.48-9.187-20.48-20.48s9.187-20.48,20.48-20.48
				s20.48,9.187,20.48,20.48S222.92,160.427,211.627,160.427z"/>
			<path d="M211.627,85.333c-30.114,0-54.613,24.499-54.613,54.613s24.499,54.613,54.613,54.613s54.613-24.499,54.613-54.613
				S241.741,85.333,211.627,85.333z M211.627,180.907c-22.586,0-40.96-18.374-40.96-40.96c0-22.586,18.374-40.96,40.96-40.96
				s40.96,18.374,40.96,40.96C252.587,162.533,234.213,180.907,211.627,180.907z"/>
		</g>
	</g>
</g>
<g>
	<g>
		<path d="M358.4,303.787H51.2c-28.233,0-51.2,22.967-51.2,51.2c0,28.233,22.967,51.2,51.2,51.2h307.2
			c28.233,0,51.2-22.967,51.2-51.2C409.6,326.753,386.633,303.787,358.4,303.787z M358.4,392.533H51.2
			c-20.7,0-37.547-16.846-37.547-37.547c0-20.7,16.846-37.547,37.547-37.547h307.2c20.7,0,37.547,16.846,37.547,37.547
			C395.947,375.687,379.1,392.533,358.4,392.533z"/>
	</g>
</g>
<g>
	<g>
		<path d="M368.64,337.92H40.96c-3.773,0-6.827,3.053-6.827,6.827s3.053,6.827,6.827,6.827h327.68c3.773,0,6.827-3.053,6.827-6.827
			S372.413,337.92,368.64,337.92z"/>
	</g>
</g>
<g>
	<g>
		<path d="M286.72,365.227h-20.48c-3.773,0-6.827,3.053-6.827,6.827s3.053,6.827,6.827,6.827h20.48c3.773,0,6.827-3.053,6.827-6.827
			S290.493,365.227,286.72,365.227z"/>
	</g>
</g>
<g>
	<g>
		<path d="M334.507,365.227h-20.48c-3.773,0-6.827,3.053-6.827,6.827s3.053,6.827,6.827,6.827h20.48
			c3.773,0,6.827-3.053,6.827-6.827S338.28,365.227,334.507,365.227z"/>
	</g>
</g>
<g>
</g>
<g>
</g>
<g>
</g>
<g>
</g>
<g>
</g>
<g>
</g>
<g>
</g>
<g>
</g>
<g>
</g>
<g>
</g>
<g>
</g>
<g>
</g>
<g>
</g>
<g>
</g>
<g>
</g>
</svg>
